<?xml version="1.0" standalone="no"?>
<!DOCTYPE svg PUBLIC "-//W3C//DTD SVG 20010904//EN"
 "http://www.w3.org/TR/2001/REC-SVG-20010904/DTD/svg10.dtd">
<svg version="1.0" xmlns="http://www.w3.org/2000/svg"
 width="994.000000pt" height="980.000000pt" viewBox="0 0 994.000000 980.000000"
 preserveAspectRatio="xMidYMid meet">

<g transform="translate(0.000000,980.000000) scale(0.100000,-0.100000)"
fill="#854DFF" stroke="none">
<path d="M4490 6710 c-80 -26 -116 -47 -169 -99 -59 -59 -94 -131 -166 -346
-8 -22 -36 -104 -64 -183 l-50 -143 27 -10 c15 -6 108 -39 207 -74 353 -125
441 -157 549 -196 59 -22 110 -38 112 -37 10 10 82 223 78 230 -3 4 -1 8 4 8
5 0 13 15 19 33 6 17 36 104 68 192 31 88 78 221 104 296 l47 136 -29 11 c-17
6 -34 9 -40 5 -6 -3 -7 -1 -4 4 4 6 -13 16 -41 23 -26 8 -87 29 -137 48 -314
120 -404 138 -515 102z m232 -245 c10 10 68 -53 68 -73 0 -11 -7 -39 -15 -62
-18 -51 -18 -50 -4 -50 23 0 99 -44 99 -57 0 -7 5 -13 10 -13 15 0 12 -62 -4
-82 -7 -10 -25 -24 -40 -32 -25 -13 -34 -12 -81 4 l-53 18 -12 -31 c-24 -64
-38 -82 -74 -91 -68 -18 -119 36 -103 109 15 75 15 77 -28 92 -22 7 -48 24
-57 36 -19 24 -24 87 -8 87 6 0 10 6 10 13 0 8 11 19 24 27 23 12 55 10 116
-5 22 -5 27 -1 45 40 13 29 29 50 47 58 16 6 28 16 28 21 0 4 6 3 13 -3 8 -6
16 -8 19 -6z"/>
<path d="M5425 6451 c-14 -24 -84 -234 -80 -241 3 -5 1 -10 -4 -12 -14 -5
-233 -630 -224 -639 7 -6 626 -230 818 -295 38 -13 73 -20 77 -16 11 12 185
513 199 575 16 74 2 173 -35 249 -24 50 -109 148 -127 148 -4 0 -14 6 -21 13
-20 20 -208 89 -225 83 -8 -3 -12 -2 -9 2 3 5 -50 28 -117 51 -67 24 -150 54
-184 67 -34 12 -65 19 -68 15z m318 -516 c155 -55 179 -67 201 -99 20 -32 20
-51 -1 -87 -32 -54 -51 -53 -246 16 -97 34 -186 70 -197 80 -33 30 -23 99 19
133 24 19 82 8 224 -43z"/>
<path d="M3975 5759 c-51 -140 -172 -479 -186 -524 -33 -106 -19 -248 31 -317
11 -15 20 -31 20 -37 0 -5 7 -12 16 -15 8 -3 13 -9 10 -14 -2 -4 9 -17 25 -27
16 -11 29 -23 29 -27 0 -5 7 -8 16 -8 8 0 12 -4 9 -10 -3 -5 0 -10 8 -10 8 0
34 -10 58 -23 53 -28 537 -202 544 -195 3 2 57 150 121 329 63 178 133 373
155 432 22 60 37 112 34 117 -3 4 1 10 7 13 16 6 40 -3 -452 172 -228 81 -421
150 -427 152 -7 3 -15 -1 -18 -8z m258 -331 c7 -7 27 -43 44 -80 18 -38 35
-68 38 -68 3 0 33 14 67 30 33 17 76 30 94 30 65 0 105 -72 74 -131 -6 -10
-43 -35 -83 -55 -40 -20 -73 -38 -75 -39 -2 -2 10 -32 27 -67 33 -67 38 -102
19 -142 -12 -28 -31 -37 -79 -38 -38 -1 -63 25 -104 109 l-30 62 -63 -29 c-35
-17 -74 -33 -87 -36 -29 -7 -82 22 -91 49 -22 70 -4 96 99 146 55 27 66 35 58
49 -21 41 -50 110 -56 134 -9 34 20 85 55 96 28 10 73 0 93 -20z"/>
<path d="M4971 5182 c-40 -114 -111 -313 -157 -443 -46 -130 -84 -240 -84
-246 0 -10 492 -189 553 -201 18 -4 73 -7 122 -6 81 1 97 4 154 33 76 39 150
112 184 184 41 84 208 560 200 567 -4 4 -42 19 -83 33 -41 14 -171 60 -288
101 -117 42 -218 73 -224 70 -7 -4 -8 -2 -4 4 4 7 2 12 -4 12 -5 0 -65 20
-133 44 -67 24 -131 47 -142 50 -19 5 -27 -13 -94 -202z m457 -172 c179 -65
201 -80 202 -137 0 -53 -56 -93 -113 -80 -39 9 -304 105 -324 117 -33 21 -46
64 -33 105 24 72 55 71 268 -5z m-108 -303 c80 -28 158 -62 173 -73 54 -43 28
-131 -43 -147 -16 -4 -84 16 -200 57 -145 52 -177 67 -191 90 -9 15 -15 37
-14 49 1 12 3 28 4 35 2 23 64 53 96 47 17 -3 95 -29 175 -58z"/>
</g>
</svg>
