<?xml version="1.0" encoding="UTF-8"?>
<!DOCTYPE svg PUBLIC "-//W3C//DTD SVG 1.1//EN" "http://www.w3.org/Graphics/SVG/1.1/DTD/svg11.dtd">
<!-- Creator: CorelDRAW -->
<svg xmlns="http://www.w3.org/2000/svg" xml:space="preserve" width="72px" height="89px" version="1.1" style="shape-rendering:geometricPrecision; text-rendering:geometricPrecision; image-rendering:optimizeQuality; fill-rule:evenodd; clip-rule:evenodd"
viewBox="0 0 512 512"
 xmlns:xlink="http://www.w3.org/1999/xlink">
 <defs>
  <style type="text/css">
   <![CDATA[
    .fil0 {fill:#DDD5F3}
   ]]>
  </style>
 </defs>
 <g id="Layer_x0020_1">
  <metadata id="CorelCorpID_0Corel-Layer"/>
  <g id="_237006808">
   <g id="_237014944">
    <path class="fil0" d="M242 507c-29,0 -51,-7 -87,-18 -7,-2 -14,-4 -21,-6 -3,-1 -4,-3 -5,-5 -1,-2 -1,-5 1,-7 3,-5 4,-11 2,-17l-46 -173c-1,-4 -4,-8 -7,-11 -2,-1 -3,-3 -3,-6 0,-2 1,-4 3,-6 15,-12 31,-18 44,-24 27,-11 41,-17 37,-55 0,-3 -1,-7 -1,-11 -4,-27 -8,-57 13,-84 10,-12 27,-18 43,-15 15,3 25,13 29,27 10,34 19,69 28,103l1 6 186 -50c22,-6 45,7 51,30 3,11 2,22 -4,32 -5,10 -15,17 -25,20l-66 17c9,6 14,14 17,24 6,21 -6,43 -26,50 8,6 14,14 17,24 3,11 1,22 -5,32 -5,10 -14,17 -25,20l-11 3c8,5 14,14 17,23 0,0 0,0 0,0 6,23 -8,46 -30,52l-27 7c-46,13 -76,18 -100,18zm-96 -36c5,1 9,2 13,4 66,20 84,25 179,0l27 -8c14,-3 23,-18 19,-33 0,0 0,0 0,0 -2,-7 -6,-13 -13,-16 -6,-4 -13,-5 -20,-3l0 0c-4,1 -8,-1 -9,-5 -1,-4 1,-9 5,-10 0,0 0,0 0,0l42 -11c7,-2 13,-6 16,-12 4,-7 5,-14 3,-21 -2,-7 -6,-13 -13,-16 -6,-4 -13,-5 -20,-3 0,0 0,0 0,0l-42 11c-4,1 -8,-1 -9,-5 -1,-4 1,-9 6,-10l68 -18c15,-4 23,-19 19,-33 -1,-7 -6,-13 -12,-17 -7,-3 -14,-4 -21,-3 0,0 0,0 0,0l-69 19c-4,1 -8,-1 -9,-5 -1,-4 1,-9 5,-10l166 -44c7,-2 12,-6 16,-13 4,-6 5,-13 3,-20 -4,-15 -19,-23 -33,-19l-193 51c-2,1 -4,0 -6,-1 -1,-1 -3,-2 -3,-4l-4 -13c-9,-34 -18,-69 -27,-103 -4,-12 -13,-15 -18,-16 -10,-3 -22,2 -28,10 -17,21 -14,47 -10,72 0,4 1,8 1,11 5,50 -18,59 -46,71 -11,4 -22,9 -34,17 2,4 4,8 6,12l46 173c2,7 2,14 -1,21z"/>
   </g>
   <g id="_237014920">
    <path class="fil0" d="M83 504c-17,0 -31,-11 -35,-27l-47 -173c-2,-9 -1,-19 4,-28 5,-8 13,-14 22,-16l29 -8c3,-1 6,-1 9,-1 17,0 31,11 36,26l46 173c5,20 -6,40 -26,45l-29 8c-3,1 -6,1 -9,1zm-18 -238c-1,0 -3,0 -5,0l-29 8c-6,2 -10,5 -13,10 -3,5 -4,11 -2,16l46 173c3,9 11,16 21,16 2,0 3,0 5,-1l29 -8c12,-3 18,-14 15,-26l-46 -173c-2,-9 -11,-15 -21,-15z"/>
   </g>
   <g>
    <g id="_237010072">
     <path class="fil0" d="M348 111c-5,0 -8,-3 -8,-7l0 -91c0,-5 3,-8 8,-8 4,0 7,3 7,8l0 91c0,4 -3,7 -7,7z"/>
    </g>
    <g id="_237022720">
     <path class="fil0" d="M394 111c-1,0 -2,0 -3,0 -4,-2 -6,-6 -4,-10l36 -87c2,-4 6,-6 10,-4 4,2 6,6 4,10l-36 87c-1,2 -4,4 -7,4z"/>
    </g>
    <g id="_237017200">
     <path class="fil0" d="M301 111c-3,0 -5,-2 -7,-4l-36 -87c-1,-4 0,-8 4,-10 4,-2 8,0 10,4l36 87c2,4 0,8 -4,10 -1,0 -2,0 -3,0z"/>
    </g>
   </g>
  </g>
 </g>
</svg>
