<svg width="100%" height="100%" viewBox="0 0 27 27" fill="none" xmlns="http://www.w3.org/2000/svg">
<path d="M11.714 23.137L11.7134 23.1379C10.4458 24.8752 8.99776 25.6791 7.65739 25.9142C6.3015 26.1519 4.94734 25.8268 3.86194 25.1322C2.52227 24.2748 1.73449 23.1095 1.44053 21.9467C1.14464 20.7761 1.35612 19.6451 1.94654 18.8394L4.67152 15.1205L9.36619 8.7136L12.5124 4.4199L12.5134 4.41849C13.8341 2.60322 15.5642 1.5664 17.4035 1.22198C19.2535 0.875532 21.2972 1.21447 23.243 2.28733C25.2735 3.40694 26.003 4.67119 26.1451 5.84772C26.2741 6.91537 25.926 7.96091 25.5043 8.84273L24.4057 8.84273L22.5864 8.84273C22.6585 8.69139 22.7401 8.53179 22.8271 8.36142C22.8572 8.30263 22.8879 8.24255 22.9191 8.18109C23.1408 7.74426 23.3801 7.24963 23.4952 6.74789C23.6125 6.23699 23.6061 5.69837 23.3173 5.18299C23.03 4.67031 22.4886 4.22619 21.6413 3.85336C20.2624 3.24666 18.8976 3.16161 17.6855 3.48851C16.4784 3.81408 15.4856 4.53156 14.8226 5.43637L11.6764 9.73007L6.98169 16.137L6.97698 16.1434L6.9725 16.15L4.80888 19.3055C4.46199 19.783 4.30196 20.429 4.3783 21.0401C4.45614 21.6631 4.7867 22.3019 5.50069 22.7132C6.24337 23.141 7.09304 23.1067 7.81244 22.8584C8.50931 22.6179 9.11311 22.1696 9.45498 21.7051L16.8187 12.0019L16.8188 12.0019L16.8239 11.995C16.9125 11.8741 17.0956 11.7617 17.3979 11.7214C17.6993 11.6811 18.0746 11.7229 18.4344 11.8812C18.7944 12.0396 19.033 12.268 19.1428 12.4892C19.2529 12.711 19.2222 12.8904 19.1337 13.0113L11.714 23.137Z" fill="#F3B1AF" stroke="black"/>
</svg>
