<svg width="100%" height="100%" viewBox="0 0 240 240" fill="none" xmlns="http://www.w3.org/2000/svg">
<path fill-rule="evenodd" clip-rule="evenodd" d="M108.927 93.9174C105.429 102.083 101.935 110.238 98.9445 118.611C95.4152 128.493 91.6827 138.387 87.8056 148.139C86.8487 150.546 85.7595 152.879 84.6713 155.211C83.3815 157.974 82.093 160.735 81.0278 163.611C80.3782 165.365 79.7129 167.011 79.086 168.562C74.7325 179.331 72.2302 185.521 89.6667 191.611C92.7484 192.687 95.9135 194.001 99.1266 195.334C105.908 198.149 112.903 201.052 119.778 202C123.258 202.48 126.009 203.15 128.312 203.712C135.73 205.519 138.496 206.193 146 195.722C153.386 185.416 158.931 169.715 164.323 154.449C167.897 144.329 171.403 134.401 175.333 126.361L175.338 126.353C177.42 122.093 179.388 118.067 180.75 113.528C181.17 112.129 183.217 109.066 185.236 106.045C187.159 103.168 189.057 100.329 189.5 99.0001C191.825 92.0259 188.847 83.7417 185.561 74.6015C184.659 72.0921 183.734 69.518 182.889 66.8889C182.235 64.8557 181.779 62.7812 181.322 60.705C180.865 58.6253 180.407 56.5437 179.75 54.5C178.771 51.4528 176.523 51.4715 173.633 51.4956C173.372 51.4978 173.105 51.5 172.833 51.5C164.103 51.5 155.727 55.7832 147.296 60.0949C140.883 63.3749 134.437 66.6714 127.778 68.1111C127.518 68.1674 127.263 68.2173 127.014 68.2663C126.118 68.4422 125.29 68.6048 124.5 69C116.692 74.0524 115.39 77.5265 112.959 84.0184C112.294 85.7926 111.545 87.7923 110.556 90.1111C110.014 91.3807 109.47 92.6492 108.927 93.9174ZM128.663 80.0334C126.776 83.1437 126.769 90.2328 130.281 92.3634C136.122 95.906 142.229 95.8722 148.739 94.2779C151.104 93.6985 153.345 90.6582 154.277 88.5173C155.632 85.4079 155.435 82.6168 154.658 79.4441C151 74 147.191 74 141 74C134.809 74 130.196 78.0222 128.663 80.0334Z" fill="#CDF348"/>
<path fill-rule="evenodd" clip-rule="evenodd" d="M132.644 32.4756C127.087 33.2786 121.202 37.7782 118.541 48.7732L118.535 48.7968L118.528 48.82C117.315 52.887 116.769 56.5089 116.747 59.6798C123.11 56.098 130.002 53.4534 137.124 50.7205C139.86 49.6706 142.63 48.6077 145.417 47.4736C148.544 46.2008 151.388 44.5954 154.111 42.6402C160.938 37.7389 163.468 44.7724 165.798 51.2527C166.34 52.7605 166.872 54.2385 167.444 55.5291C168.977 58.985 169.969 62.5283 170.984 66.1537L171 66.2097C171.679 68.6332 172.617 70.9503 173.554 73.2648C174.702 76.099 175.848 78.9292 176.514 81.9458C176.623 82.4385 176.836 83.0671 177.065 83.7445C177.848 86.0541 178.823 88.9319 176.514 88.9319C171.843 76.7699 162.3 52.1458 161.5 50.9458C161.379 50.7644 161.251 50.5546 161.113 50.3285C160.108 48.6847 158.577 46.1793 155.5 47.4736C154.47 47.9068 151.968 48.6456 148.821 49.5746C141.276 51.8021 130.029 55.123 126.5 57.9458C122.604 59.3304 119.467 60.8819 116.867 62.4347C117.424 68.1578 119.854 72.1146 123.052 74.2602C123.514 74.5699 123.996 74.8454 124.498 75.0855C124.595 74.886 124.698 74.6953 124.808 74.5147L124.836 74.4694L124.868 74.4272C126.516 72.2642 131.393 68 138 68H138.113C141.116 67.9999 143.747 67.9998 146.076 68.7258C148.514 69.4856 150.555 71.0099 152.488 73.8864L152.587 74.0338L152.629 74.2063C153.432 77.4862 153.672 80.5258 152.194 83.9167C151.687 85.0813 150.837 86.4656 149.795 87.6454C148.77 88.8053 147.451 89.8881 145.977 90.2492C139.325 91.8781 132.915 91.9502 126.763 88.2184C124.593 86.9023 123.661 84.1866 123.451 81.6484C123.319 80.0594 123.455 78.3891 123.835 76.9229C123.189 76.6215 122.563 76.2688 121.961 75.8648C118.322 73.4226 115.771 69.2543 114.983 63.6174C112.63 65.1676 110.761 66.6765 109.152 67.976C108.66 68.3738 108.191 68.752 107.741 69.1057C108.436 70.92 106.923 74.6055 105.229 78.7299C104.745 79.9077 104.097 81.1213 103.447 82.3373C102.419 84.2629 101.387 86.1947 101 88.0001C99.9045 93.1112 95.0511 103.316 88.3053 115.077C85.6701 119.672 83.4685 124.337 81.3009 128.93C78.1611 135.583 75.0928 142.084 70.8814 148C61 161.882 67.0876 171.5 71.5 172C78.3333 174 98.8 181.4 114 187C129.2 192.6 134.333 184.667 136 180C136.899 177.777 138.221 174.666 139.755 171.058C143.628 161.948 148.848 149.668 152 140.5C157.5 124.5 171 96.5001 174 93.0001C176.4 90.2001 177.915 92.7049 177.873 94.3073C167.429 111.525 160.874 129.985 154.283 148.544C150.169 160.13 146.04 171.755 140.944 183.141C134.111 198.406 122.701 194.698 110.017 189.285C104.707 187.019 98.6799 185.526 92.6484 184.031C84.8969 182.11 77.1376 180.187 70.8814 176.62C67.9126 174.927 64.8408 173.118 63.3544 169.941C59.6167 161.951 64.8591 152.462 68.9685 145.687C77.2283 132.07 85.3118 116.933 92.0819 101.5C94.0605 96.9897 103 75 104.313 68.8853C107.553 65.7001 111.05 63.0924 114.744 60.8503C114.612 57.1439 115.17 52.9088 116.571 48.2032C119.36 36.7146 125.694 31.4708 132.244 30.5244C138.712 29.5899 145.174 32.9141 147.897 38.0877C148.158 38.5825 147.967 39.1681 147.471 39.3958C147.41 39.4239 147.322 39.4693 147.213 39.5254C146.436 39.9252 144.605 40.867 144.103 39.9123C141.826 35.586 138.288 31.6601 132.644 32.4756ZM125.444 81.4831C125.333 80.1448 125.445 78.7952 125.718 77.6407C131.623 79.4161 138.759 77.3231 144.619 71.3353C152.011 74.9092 150.981 84.6617 144.5 88.2184C138.131 89.7782 133.328 89.8618 127.8 86.5084C126.457 85.6939 125.636 83.7997 125.444 81.4831ZM126.38 75.796C131.179 77.1576 137.175 75.6506 142.496 70.5508C141.189 70.1968 139.693 70 138 70C132.269 70 127.942 73.7229 126.491 75.5967C126.453 75.6609 126.416 75.7274 126.38 75.796Z" fill="#270431"/>
<path d="M95.7958 161.565C92.1876 160.925 88.4452 160.262 84.5 159C80.815 157.821 79.4007 162.154 83.0857 163.334C85.9359 164.246 89.0891 164.662 92.2678 165.081C98.1007 165.852 104.019 166.633 108.31 170.509C108.67 170.835 109.075 171.216 109.503 171.618C110.345 172.41 111.274 173.283 112.118 173.975C115.109 176.429 118.915 171.791 115.924 169.337C109.386 163.973 102.848 162.814 95.7958 161.565Z" fill="#270431"/>
<path d="M98.4294 149.787C98.5898 149.259 99.1483 148.96 99.6768 149.121C107.363 151.455 115.812 154.23 123.08 157.907C123.572 158.157 123.77 158.758 123.52 159.251C123.271 159.744 122.669 159.941 122.177 159.692C115.077 156.099 106.773 153.366 99.0957 151.035C98.5672 150.874 98.2689 150.316 98.4294 149.787Z" fill="#270431"/>
<path d="M54.8772 153.805C55.322 153.478 55.4173 152.852 55.0899 152.407C54.7626 151.962 54.1366 151.867 53.6918 152.195C52.9332 152.753 52.3176 153.651 51.8264 154.612C51.3246 155.594 50.9036 156.739 50.5769 157.895C48.6222 164.81 50.82 173.872 55.96 178.901C56.3548 179.288 56.9879 179.281 57.3741 178.886C57.7604 178.491 57.7535 177.858 57.3588 177.472C52.7334 172.946 50.7412 164.666 52.5015 158.439C52.8027 157.373 53.1804 156.358 53.6073 155.522C54.0449 154.666 54.488 154.092 54.8772 153.805Z" fill="#270431"/>
<path d="M44.9235 177.768C45.282 178.188 45.9132 178.238 46.3333 177.88C46.7535 177.521 46.8036 176.89 46.4451 176.47C41.9406 171.19 39.2682 164.849 41.8477 158.37C42.052 157.857 41.8017 157.275 41.2886 157.071C40.7755 156.867 40.1939 157.117 39.9896 157.63C37.0061 165.123 40.2183 172.252 44.9235 177.768Z" fill="#270431"/>
</svg>
