<?xml version="1.0" encoding="UTF-8" standalone="no"?> <svg width="72px" height="89px" viewBox="0 0 512 512" fill="none" xmlns="http://www.w3.org/2000/svg">
<path d="M364.751 95.3105C365.774 95.7649 366.881 95.9997 368 95.9999H496V79.9999H369.697L227.249 16.6894C225.352 15.8466 223.201 15.7743 221.251 16.4877C219.301 17.2011 217.705 18.6444 216.8 20.5126L215.494 23.2079C211.496 31.3949 210.442 40.7096 212.51 49.5829L172.249 31.6894C170.378 30.858 168.259 30.7757 166.329 31.4593C164.399 32.1429 162.805 33.5404 161.874 35.3642L161.091 36.8994C156.787 45.2527 155.597 54.8649 157.733 64.0156L123.249 48.6894C121.368 47.8535 119.236 47.7749 117.299 48.4701C115.361 49.1652 113.766 50.5806 112.845 52.4218L111.155 55.8007C106.411 65.2894 105.631 76.2739 108.985 86.338C112.34 96.4021 119.555 104.721 129.044 109.466L194.461 142.175C183.815 149.535 175.116 159.372 169.114 170.838C163.111 182.304 159.983 195.057 160 208V211.228C153.682 202.792 145.488 195.941 136.067 191.215C126.646 186.489 116.255 184.019 105.715 184H88C86.7084 184 85.436 184.313 84.2916 184.911C83.1472 185.51 82.1647 186.377 81.4282 187.438C80.6916 188.499 80.223 189.722 80.0622 191.004C79.9014 192.285 80.0533 193.587 80.5049 194.797L102.606 254.021C89.0576 266.72 78.919 280.803 72.3828 296H40C37.8783 296 35.8435 296.843 34.3433 298.343C32.843 299.843 32.0001 301.878 32 304V352C32 353.398 32.3666 354.773 33.0633 355.985C33.76 357.198 34.7625 358.207 35.9707 358.911L75.0342 381.687C84.2158 400.017 99.0381 416.884 118.22 430.865L96.5713 485.031C96.0861 486.245 95.9058 487.559 96.046 488.859C96.1863 490.158 96.6429 491.404 97.3759 492.486C98.1089 493.569 99.096 494.455 100.251 495.067C101.406 495.68 102.693 496 104 496H160C161.284 496 162.55 495.691 163.689 495.099C164.829 494.506 165.809 493.649 166.547 492.598L187.283 463.073C232.321 474.976 279.679 474.976 324.717 463.073L345.453 492.598C346.191 493.649 347.171 494.506 348.311 495.099C349.45 495.691 350.716 496 352 496H408C409.307 496 410.594 495.68 411.749 495.067C412.904 494.455 413.891 493.569 414.624 492.486C415.357 491.404 415.814 490.158 415.954 488.859C416.094 487.559 415.914 486.245 415.429 485.031L393.781 430.87C428.805 405.417 448 371.934 448 336C447.91 319.238 443.703 302.754 435.747 288H440C448.487 288 456.626 284.629 462.627 278.627C468.629 272.626 472 264.487 472 256C472 247.513 468.629 239.374 462.627 233.373C456.626 227.371 448.487 224 440 224H424V240H440C444.243 240 448.313 241.686 451.314 244.686C454.314 247.687 456 251.756 456 256C456 260.243 454.314 264.313 451.314 267.314C448.313 270.314 444.243 272 440 272H425.561C424.403 270.457 423.215 268.924 421.971 267.412C407.059 249.293 386.24 233.784 361.491 222.268L372.502 181.894C372.967 180.203 373.973 178.71 375.367 177.646C376.762 176.581 378.466 176.003 380.221 176H496V160H380.221C374.958 160.009 369.843 161.743 365.661 164.938C361.479 168.132 358.46 172.61 357.066 177.685L337.89 248H328C325.879 247.998 323.846 247.154 322.346 245.654C320.846 244.154 320.002 242.121 320 240V224C320 207.026 313.257 190.747 301.255 178.745C289.252 166.743 272.974 160 256 160C239.026 160 222.747 166.743 210.745 178.745C198.743 190.747 192 207.026 192 224V240C191.998 242.121 191.154 244.154 189.654 245.654C188.154 247.154 186.121 247.998 184 248H176V208C175.972 192.251 181.763 177.046 192.261 165.306C202.759 153.565 217.224 146.117 232.879 144.391L231.121 128.488C224.575 129.213 218.144 130.742 211.972 133.042L136.199 95.1552C131.104 92.6059 127.081 88.328 124.849 83.0859C122.617 77.8438 122.322 71.9789 124.016 66.539L260.751 127.31L267.249 112.689L186.973 77.0107C181.881 74.7437 177.735 70.7776 175.245 65.7912C172.755 60.8048 172.075 55.108 173.322 49.6757L309.751 110.31L316.249 95.6894L241.744 62.5761C236.556 60.2667 232.353 56.1936 229.882 51.0797C227.411 45.9659 226.832 40.1419 228.247 34.6415L364.751 95.3105ZM144 296H120V280H144V296ZM393.531 291.463C399.165 299.523 403.309 308.526 405.767 318.048L390.251 321.952C388.257 314.28 384.905 307.027 380.354 300.537L393.531 291.463ZM392 336H408C408 366.159 389.083 394.744 356.1 414.426L347.9 400.685C375.927 383.963 392 360.386 392 336ZM328 368C328 370.122 327.157 372.156 325.657 373.657C324.156 375.157 322.122 376 320 376C311.516 376.01 303.382 379.384 297.383 385.383C291.384 391.382 288.01 399.516 288 408C288 410.122 287.157 412.157 285.657 413.657C284.157 415.157 282.122 416 280 416C277.878 416 275.843 415.157 274.343 413.657C272.843 412.157 272 410.122 272 408C271.99 399.516 268.616 391.382 262.617 385.383C256.618 379.384 248.484 376.01 240 376C237.878 376 235.843 375.157 234.343 373.657C232.843 372.157 232 370.122 232 368C232 365.878 232.843 363.843 234.343 362.343C235.843 360.843 237.878 360 240 360C248.484 359.99 256.618 356.616 262.617 350.617C268.616 344.618 271.99 336.484 272 328C272 325.878 272.843 323.843 274.343 322.343C275.843 320.843 277.878 320 280 320C282.122 320 284.157 320.843 285.657 322.343C287.157 323.843 288 325.878 288 328C288.01 336.484 291.384 344.618 297.383 350.617C303.382 356.616 311.516 359.99 320 360C322.122 360 324.156 360.843 325.657 362.343C327.157 363.843 328 365.878 328 368V368ZM256 176C265.494 176 274.774 178.815 282.667 184.089C290.561 189.364 296.713 196.86 300.346 205.631C303.979 214.402 304.93 224.053 303.078 233.364C301.226 242.675 296.654 251.228 289.941 257.941C283.228 264.654 274.675 269.226 265.364 271.078C256.053 272.93 246.402 271.979 237.631 268.346C228.86 264.713 221.364 258.561 216.089 250.667C210.815 242.774 208 233.493 208 224C208.014 211.274 213.076 199.073 222.075 190.075C231.073 181.076 243.274 176.014 256 176V176Z" fill="#DDD5F3"/>
<path d="M272 224H288C287.99 215.516 284.616 207.382 278.617 201.383C272.618 195.384 264.484 192.01 256 192V208C260.242 208.005 264.309 209.692 267.308 212.692C270.308 215.691 271.995 219.758 272 224V224Z" fill="#DDD5F3"/>
<path d="M280 381.493C287.452 381.493 293.493 375.452 293.493 368C293.493 360.548 287.452 354.507 280 354.507C272.548 354.507 266.507 360.548 266.507 368C266.507 375.452 272.548 381.493 280 381.493Z" fill="#DDD5F3"/>
<path d="M54.7881 175.018C54.848 175.296 55.0008 175.544 55.2212 175.723C55.4416 175.901 55.7164 175.999 56 176H56.0103C56.2939 175.999 56.5687 175.901 56.7891 175.723C57.0095 175.544 57.1623 175.296 57.2222 175.018C59.3054 165.789 63.9616 157.339 70.6511 150.647C77.3406 143.956 85.7894 139.298 95.0183 137.212C95.296 137.153 95.5451 137 95.7238 136.78C95.9025 136.559 96 136.284 96 136C96 135.716 95.9025 135.441 95.7238 135.22C95.5451 135 95.296 134.847 95.0183 134.788C85.7894 132.702 77.3406 128.044 70.6511 121.353C63.9616 114.661 59.3054 106.211 57.2222 96.9817C57.1623 96.7044 57.0095 96.456 56.7891 96.2774C56.5687 96.0989 56.2939 96.001 56.0103 96H56C55.7164 96.001 55.4416 96.0989 55.2212 96.2774C55.0008 96.4559 54.848 96.7044 54.7881 96.9817C52.7023 106.211 48.0438 114.659 41.3525 121.349C34.6612 128.038 26.2111 132.695 16.9817 134.778C16.7044 134.838 16.456 134.99 16.2774 135.211C16.0989 135.431 16.001 135.706 16 135.99V136.01C16.001 136.294 16.0989 136.569 16.2775 136.789C16.456 137.009 16.7045 137.162 16.9817 137.222C26.2112 139.305 34.6613 143.962 41.3526 150.651C48.0439 157.341 52.7024 165.789 54.7881 175.018Z" fill="#DDD5F3"/>
</svg>
