<?xml version="1.0" encoding="UTF-8"?>
<!DOCTYPE svg PUBLIC "-//W3C//DTD SVG 1.1//EN" "http://www.w3.org/Graphics/SVG/1.1/DTD/svg11.dtd">
<!-- Creator: CorelDRAW -->
<svg xmlns="http://www.w3.org/2000/svg" xml:space="preserve" width="72px" height="89px" version="1.1" style="shape-rendering:geometricPrecision; text-rendering:geometricPrecision; image-rendering:optimizeQuality; fill-rule:evenodd; clip-rule:evenodd"
viewBox="0 0 512 512"
 xmlns:xlink="http://www.w3.org/1999/xlink">
 <defs>
  <style type="text/css">
   <![CDATA[
    .fil0 {fill:#DDD5F3}
   ]]>
  </style>
 </defs>
 <g id="Layer_x0020_1">
  <metadata id="CorelCorpID_0Corel-Layer"/>
  <path class="fil0" d="M320 385l-276 0c-24,0 -44,-19 -44,-44l0 -251c0,-24 20,-44 44,-44l338 0c25,0 44,20 44,44l0 87 -14 0 0 -87c0,-16 -13,-30 -30,-30l-338 0c-17,0 -30,14 -30,30l0 195 306 0 0 100zm-107 -36l-92 0c-4,0 -7,-3 -7,-7l0 -28c0,-4 3,-7 7,-7l92 0c4,0 7,3 7,7l0 28c0,4 -3,7 -7,7zm-85 -14l78 0 0 -14 -78 0 0 14z"/>
  <path class="fil0" d="M292 466l-158 0c-17,0 -30,-14 -30,-30 0,-17 13,-30 30,-30 3,0 11,0 13,-1 1,-2 0,-6 0,-9 0,-5 -1,-10 -1,-18 0,-4 4,-7 7,-7l120 0c2,0 4,1 5,2 1,2 2,3 2,5 0,8 0,13 -1,18 0,3 0,7 0,9 2,1 11,1 13,1 17,0 31,13 31,30 0,16 -14,30 -31,30zm-43 -34l-71 0c-4,0 -7,-3 -7,-7 0,-4 3,-7 7,-7l71 0c3,0 7,3 7,7 0,4 -4,7 -7,7z"/>
  <path class="fil0" d="M491 466l-136 0c-12,0 -21,-9 -21,-21l0 -253c0,-12 9,-21 21,-21l136 0c12,0 21,9 21,21l0 253c0,12 -9,21 -21,21zm-56 -14l-24 0c-4,0 -7,-3 -7,-7 0,-4 3,-7 7,-7l24 0c4,0 7,3 7,7 0,4 -3,7 -7,7zm63 -27l-150 0 0 -212 150 0 0 212z"/>
  <g id="_665611440">
   <path class="fil0" d="M278 168l-208 0c-4,0 -7,-3 -7,-7 0,-4 3,-7 7,-7l208 0c4,0 7,3 7,7 0,4 -3,7 -7,7z"/>
   <path class="fil0" d="M278 203l-208 0c-4,0 -7,-3 -7,-7 0,-4 3,-7 7,-7l208 0c4,0 7,3 7,7 0,4 -3,7 -7,7z"/>
   <path class="fil0" d="M278 238l-208 0c-4,0 -7,-3 -7,-7 0,-4 3,-7 7,-7l208 0c4,0 7,3 7,7 0,4 -3,7 -7,7z"/>
  </g>
 </g>
</svg>
